<svg xmlns="http://www.w3.org/2000/svg" width="20.618" height="17.197" viewBox="0 0 20.618 17.197"><path id="Path_9" data-name="Path 9" d="M3344.841,85.584h-7.663c0,.033,0,.07,0,.108,0,.271,0,.542,0,.813,0,.251-.073.37-.318.428a3.722,3.722,0,0,1-.665.087,6.889,6.889,0,0,1-1.494-.053,1.119,1.119,0,0,1-.271-.1.294.294,0,0,1-.178-.288c0-.434,0-.868,0-1.3a.14.14,0,0,0-.115-.162,2.33,2.33,0,0,1-.767-.4,1.026,1.026,0,0,1-.405-.835q.007-2.417.006-4.833,0-2.573-.006-5.147v-.091a1.186,1.186,0,0,0-.551.054.212.212,0,0,0-.128.225c0,.868,0,1.735,0,2.6,0,.375-.052.433-.423.433-.167,0-.333,0-.5,0a.458.458,0,0,1-.439-.269,2.145,2.145,0,0,1-.2-.957c-.019-.561-.028-1.123-.022-1.684a1.114,1.114,0,0,1,.728-1.039,3.544,3.544,0,0,1,1.424-.277l.112-.006c0-.046,0-.091,0-.135.006-.368-.013-.738.024-1.1a1.429,1.429,0,0,1,.941-1.195,6.145,6.145,0,0,1,1.694-.418,39.846,39.846,0,0,1,5.1-.208c1.049,0,2.1,0,3.146.033.785.024,1.57.079,2.351.154a6.087,6.087,0,0,1,1.856.434,1.489,1.489,0,0,1,.974,1.445c0,.325,0,.65,0,.985l.484.034a2.923,2.923,0,0,1,1.063.26,1.117,1.117,0,0,1,.714,1.094c-.013.6-.016,1.208-.035,1.811a1.794,1.794,0,0,1-.171.74.471.471,0,0,1-.467.3c-.189-.006-.38,0-.57,0-.254,0-.336-.073-.339-.33-.006-.438,0-.875,0-1.313q0-.7,0-1.394c0-.139-.046-.217-.181-.243-.157-.031-.319-.037-.5-.056v.15q0,1.987,0,3.974c0,1.959-.007,3.918.006,5.878a1.142,1.142,0,0,1-.629,1.077,5.118,5.118,0,0,1-.547.25c-.072.03-.115.052-.113.149.009.426,0,.852,0,1.278a.322.322,0,0,1-.221.344,1.859,1.859,0,0,1-.529.113c-.545.008-1.09-.007-1.635-.018a.837.837,0,0,1-.237-.052.371.371,0,0,1-.306-.428q0-.413,0-.825C3344.845,85.647,3344.842,85.613,3344.841,85.584Zm-3.832-13.436v.006c-1.072,0-2.143-.006-3.215,0a11.514,11.514,0,0,0-2.092.171,4.316,4.316,0,0,0-.763.23.574.574,0,0,0-.385.6c.011,1.255,0,2.51,0,3.764,0,.8,0,1.6,0,2.394a.514.514,0,0,0,.2.447,3.1,3.1,0,0,0,.556.327,5.727,5.727,0,0,0,1.6.393c.8.095,1.6.178,2.4.223a31.552,31.552,0,0,0,3.542-.007,20.256,20.256,0,0,0,2.766-.307,4.914,4.914,0,0,0,1.322-.415.814.814,0,0,0,.51-.813c-.024-.941-.007-1.882-.007-2.823,0-1.077,0-2.154,0-3.23a.527.527,0,0,0-.269-.49,1.446,1.446,0,0,0-.2-.1,3.771,3.771,0,0,0-1.162-.258c-.571-.048-1.143-.095-1.715-.1C3343.082,72.135,3342.045,72.147,3341.009,72.147ZM3341,71.51h2.567a.223.223,0,0,0,.256-.254c0-.167,0-.333,0-.5,0-.22-.073-.286-.3-.286h-5.083a.225.225,0,0,0-.259.253c0,.174,0,.349,0,.523s.084.264.272.264Zm6.445,10.871c0-.143,0-.286,0-.43,0-.2-.1-.279-.289-.209a9.67,9.67,0,0,1-1.736.438,7.142,7.142,0,0,0-.807.2.4.4,0,0,0-.281.423v.523c0,.211.055.275.268.294a6.846,6.846,0,0,0,1.667-.055,2.387,2.387,0,0,0,.888-.286.524.524,0,0,0,.292-.513C3347.441,82.637,3347.448,82.508,3347.448,82.381Zm-10.792,1.272c.255-.012.509-.021.764-.036.193-.011.26-.086.261-.279,0-.128.006-.255.006-.383,0-.416-.082-.53-.476-.654a1.154,1.154,0,0,0-.124-.03c-.485-.1-.972-.18-1.454-.29-.27-.061-.531-.163-.8-.246-.164-.051-.268.021-.268.19,0,.3,0,.6,0,.906a.44.44,0,0,0,.151.338,1.345,1.345,0,0,0,.563.287A5.8,5.8,0,0,0,3336.656,83.653Z" transform="translate(-3330.698 -69.839)" fill="#55a841"></path></svg>