<svg width="20.618" height="17.197" xmlns="http://www.w3.org/2000/svg" xmlns:xlink="http://www.w3.org/1999/xlink" id="Layer_1" x="0px" y="0px" viewBox="0 0 21.5 18.8" style="enable-background:new 0 0 21.5 18.8;" xml:space="preserve">

<style type="text/css">
	.st0{fill:#55A841;}
</style>
<g transform="translate(0.000000,249.000000) scale(0.100000,-0.100000)">
	<path class="st0" d="M96.1,2486c-12.8-2.1-26.1-9.2-37.4-20c-10.1-9.8-16.2-19.5-19.5-31.1c-2-7-2.1-17.8-0.4-25.6   c5.8-26.1,28.5-61.4,61.7-96.2l7-7.3l5.9,6.2c27.7,28.9,48.7,58.4,57.9,81.8c11.4,28.4,6.6,51.5-14.8,72   c-9.6,9.2-18.6,14.7-30,18.3c-5.3,1.7-7.9,2-16.5,2.2C104.5,2486.5,98.2,2486.3,96.1,2486z M134,2449c1.4-0.5,3.2-2,4.2-3.4   c1.7-2.5,1.7-2.6,1.7-28.3c0-28.2,0-28.2-4.4-31.1l-2.5-1.7l-26.3,0.2l-26.3,0.2l-2.5,2.7l-2.5,2.8v26.7v26.7l1.9,2.3   c1,1.2,2.9,2.6,4.2,2.9C84.9,2450.2,130.9,2450.1,134,2449z"></path>
</g>
</svg>