<svg xmlns="http://www.w3.org/2000/svg" width="21.502" height="18.788" viewBox="0 0 21.502 18.788"><g id="Group_120" data-name="Group 120" transform="translate(-2875.34 -132.17)"><g id="Group_9" data-name="Group 9" transform="translate(2876.789 132.17)"><path id="Path_7" data-name="Path 7" d="M2891.775,144.65a1.86,1.86,0,0,1-1.488-.665,1.836,1.836,0,0,1-.387-1.548,9.356,9.356,0,0,1,5.289-6.958,8.417,8.417,0,0,1,1.045-.412c.09-.03.18-.058.269-.085a2.57,2.57,0,0,1,1.413-2.468,2.52,2.52,0,0,1,2.85.21,2.553,2.553,0,0,1,1.08,2.258,8.806,8.806,0,0,1,.842.3,9.281,9.281,0,0,1,5.561,6.286,5.733,5.733,0,0,1,.215,1.136,1.782,1.782,0,0,1-.429,1.32,1.842,1.842,0,0,1-1.293.621c-.061,0-.112.006-.164.006h-14.8Zm7.414-10.784a.911.911,0,0,0-.446.129c-.448.25-.7.576-.462,1.353l.251.827-.832.235-.314.086c-.215.058-.419.113-.61.177a6.991,6.991,0,0,0-.838.326,7.642,7.642,0,0,0-4.373,5.755c-.018.094,0,.118.024.145s.045.054.185.054h14.8l.052,0h.01a.174.174,0,0,0,.118-.043c.005-.006.021-.023.016-.076a4.08,4.08,0,0,0-.156-.8,7.564,7.564,0,0,0-4.588-5.186,9.236,9.236,0,0,0-.917-.31c-.166-.05-.332-.1-.5-.154l-.8-.261.258-.8a.958.958,0,0,0-.324-1.235A.916.916,0,0,0,2899.189,133.866Z" transform="translate(-2889.864 -132.17)" fill="#55a841"></path></g><g id="Group_10" data-name="Group 10" transform="translate(2875.34 145.735)"><path id="Path_8" data-name="Path 8" d="M2888.243,273.407h-11.321a2.25,2.25,0,0,1-.562-.057,1.332,1.332,0,0,1-.836-.621,1.391,1.391,0,0,1-.13-1.08c.175-.638.386-1.395.625-2.165a1.783,1.783,0,0,1,1.647-1.289c.125-.009.241-.009.335-.009h16.178a1.889,1.889,0,0,1,2.085,1.582q.111.393.224.785c.092.322.184.645.275.968a1.382,1.382,0,0,1-1.43,1.888Zm-11.108-1.7c3.324,0,14.58,0,17.919,0l-.2-.695q-.113-.394-.225-.788a1.22,1.22,0,0,0-.122-.318,1.2,1.2,0,0,0-.332-.03H2878c-.072,0-.146,0-.206,0-.128.01-.133.025-.156.1C2877.453,270.583,2877.284,271.176,2877.136,271.71Z" transform="translate(-2875.341 -268.184)" fill="#55a841"></path></g></g></svg>