<svg xmlns="http://www.w3.org/2000/svg" width="15.874" height="14.829" viewBox="0 0 15.874 14.829"><path id="Path_6" data-name="Path 6" d="M2565.007,122.7a1.686,1.686,0,0,0-.532-.908,1.57,1.57,0,0,0-1.028-.353h-1.478q-.87,0-1.74,0a3.247,3.247,0,0,0-6.3,0h-1.856l-1.374,0a1.493,1.493,0,0,0-1.5,1.12,1.73,1.73,0,0,0-.055.46q0,4.6,0,9.2a1.491,1.491,0,0,0,1.155,1.538,2.046,2.046,0,0,0,.5.047h6.183c1.847,0,4.037,0,6.281.009h.011a1.6,1.6,0,0,0,1.737-1.3l.006-.03v-9.743Zm-13.425.325v9.191h-.393l-.458,0v-9.125c0-.026,0-.047,0-.064h.85Zm5.5-2.463a1.707,1.707,0,0,1,1.461.868h-2.922A1.708,1.708,0,0,1,2557.08,120.564Zm3.815,2.474v9.167h-7.7v-9.167Zm1.6-.011h.938q0,4.6,0,9.191h-.937Z" transform="translate(-2549.143 -118.981)" fill="#55a841"></path></svg>